<svg width="16" height="16" viewBox="0 0 16 16" fill="none" xmlns="http://www.w3.org/2000/svg">
<path d="M0 3C0 1.58579 1.19209e-07 0.87868 0.43934 0.43934C0.87868 1.19209e-07 1.58579 0 3 0C4.41421 0 5.12132 1.19209e-07 5.56066 0.43934C6 0.87868 6 1.58579 6 3V13C6 14.4142 6 15.1213 5.56066 15.5607C5.12132 16 4.41421 16 3 16C1.58579 16 0.87868 16 0.43934 15.5607C1.19209e-07 15.1213 0 14.4142 0 13V3Z" fill="#1A1C21"/>
<path d="M10 3C10 1.58579 10 0.87868 10.4393 0.43934C10.8787 1.19209e-07 11.5858 0 13 0C14.4142 0 15.1213 1.19209e-07 15.5607 0.43934C16 0.87868 16 1.58579 16 3V13C16 14.4142 16 15.1213 15.5607 15.5607C15.1213 16 14.4142 16 13 16C11.5858 16 10.8787 16 10.4393 15.5607C10 15.1213 10 14.4142 10 13V3Z" fill="#1A1C21"/>
</svg>
