<svg width="22" height="23" viewBox="0 0 22 23" fill="none" xmlns="http://www.w3.org/2000/svg">
<path d="M12.7277 5.95271C17.6006 8.34788 20.037 9.54543 20.037 11.5001C20.037 13.4546 17.6005 14.6522 12.7277 17.0474L9.40933 18.6785C5.66705 20.518 3.79588 21.4377 2.89618 20.7689C2.65436 20.5892 2.45478 20.3523 2.31313 20.0767C1.7864 19.0519 2.84762 17.1704 4.96998 13.4076C5.44076 12.573 5.67619 12.1556 5.71828 11.6992C5.73046 11.5667 5.73046 11.4334 5.71828 11.3009C5.67619 10.8445 5.44076 10.4271 4.97001 9.59254C2.84762 5.82968 1.78643 3.94826 2.31315 2.92337C2.45477 2.64782 2.65431 2.4109 2.89619 2.23112C3.79585 1.56243 5.66701 2.48217 9.40934 4.32164L12.7277 5.95271Z" stroke="#767692" stroke-width="2.5"/>
</svg>
