<svg width="14" height="16" viewBox="0 0 14 16" fill="none" xmlns="http://www.w3.org/2000/svg">
<path d="M13.8906 8.846C13.5371 10.189 11.8667 11.138 8.5257 13.0361C5.296 14.8709 3.6812 15.7884 2.37983 15.4196C1.8418 15.2671 1.35159 14.9776 0.95624 14.5787C1.78814e-07 13.6139 0 11.7426 0 8C0 4.2574 1.78814e-07 2.3861 0.95624 1.42132C1.35159 1.02245 1.8418 0.73288 2.37983 0.58042C3.6812 0.21165 5.296 1.12907 8.5257 2.96393C11.8667 4.86197 13.5371 5.811 13.8906 7.154C14.0365 7.7084 14.0365 8.2916 13.8906 8.846Z" fill="#1A1C21"/>
</svg>
