<svg width="20" height="20" viewBox="0 0 20 20" fill="none" xmlns="http://www.w3.org/2000/svg">
<path d="M1 1L19 19" stroke="#E6BA85" stroke-width="1.5" stroke-linecap="round"/>
<path d="M2.7998 9.1001C2.7998 13.0766 6.02335 16.3001 9.9998 16.3001M9.9998 16.3001C11.7589 16.3001 13.3707 15.6693 14.6211 14.6214M9.9998 16.3001V19.0001M9.9998 19.0001H12.6998M9.9998 19.0001H7.2998M17.1998 9.1001C17.1998 10.5864 16.7494 11.9674 15.9778 13.1144" stroke="#E6BA85" stroke-width="1.5" stroke-linecap="round"/>
<path d="M5.49976 5.482V9.1C5.49976 11.5853 7.51448 13.6 9.99976 13.6C11.0216 13.6 11.948 13.2486 12.7034 12.6748M13.9946 11.1196C14.3173 10.4991 14.4998 9.84781 14.4998 9.1V5.482C14.4998 2.99672 12.485 1 9.99976 1C8.31784 1 6.87684 1.86874 6.10456 3.2356" stroke="#E6BA85" stroke-width="1.5" stroke-linecap="round"/>
</svg>
